<svg width="6" height="9" viewBox="0 0 6 9" fill="none" xmlns="http://www.w3.org/2000/svg">
<path d="M1.92291 3.3H4.07709C4.74573 3.3 4.98819 3.36962 5.23263 3.50035C5.47708 3.63108 5.66892 3.82292 5.79965 4.06737C5.93038 4.31181 6 4.55427 6 5.22291V6.17709C6 6.84573 5.93038 7.08819 5.79965 7.33263C5.66892 7.57708 5.47708 7.76892 5.23263 7.89965C4.98819 8.03038 4.74573 8.1 4.07709 8.1H1.92291C1.25427 8.1 1.01181 8.03038 0.767366 7.89965C0.522921 7.76892 0.33108 7.57708 0.20035 7.33263C0.0696192 7.08819 0 6.84573 0 6.17709L0 5.22291C0 4.55427 0.0696192 4.31181 0.20035 4.06737C0.33108 3.82292 0.522921 3.63108 0.767366 3.50035C1.01181 3.36962 1.25427 3.3 1.92291 3.3ZM3 0C4.1598 0 5.1 0.940202 5.1 2.1V4.2C5.1 4.53137 4.83137 4.8 4.5 4.8H1.5C1.16863 4.8 0.9 4.53137 0.9 4.2V2.1C0.9 0.940202 1.8402 0 3 0ZM3 0.75C2.28548 0.75 1.70061 1.3051 1.65311 2.00757L1.65 2.1V4.05H4.35V2.1C4.35 1.38548 3.7949 0.800613 3.09243 0.753114L3 0.75Z" fill="white"/>
</svg>
